<?xml version="1.0" standalone="no"?><!DOCTYPE svg PUBLIC "-//W3C//DTD SVG 1.1//EN" "http://www.w3.org/Graphics/SVG/1.1/DTD/svg11.dtd"><svg class="icon" width="200px" height="200.00px" viewBox="0 0 1024 1024" version="1.1" xmlns="http://www.w3.org/2000/svg"><path fill="#ffffff" d="M516.022857 128c-111.085714 0-201.142857 90.057143-201.142857 201.142857s90.057143 201.142857 201.142857 201.142857 201.142857-90.057143 201.142857-201.142857-90.057143-201.142857-201.142857-201.142857z m0 329.142857a128 128 0 1 1 0-256 128 128 0 0 1 0 256zM285.568 164.571429s-304.749714 62.665143-100.955429 304.475428C184.630857 469.046857 0.146286 512 0 768h73.142857s-0.146286-185.142857 212.425143-256c0 0 38.857143-32-27.428571-82.285714 0 0-141.202286-124.361143 27.684571-191.323429L285.568 164.571429zM804.571429 493.732571c-121.179429 0-219.428571 98.230857-219.428572 219.428572s98.249143 219.428571 219.428572 219.428571 219.428571-98.230857 219.428571-219.428571-98.249143-219.428571-219.428571-219.428572z m42.532571 399.232h-60.214857v-60.214857h60.214857v60.214857z m70.418286-189.421714c-7.478857 11.849143-23.515429 27.977143-48.109715 48.402286-12.690286 10.569143-20.608 19.072-23.68 25.526857-3.072 6.436571-4.48 17.92-4.187428 34.505143h-54.637714c-0.146286-7.862857-0.219429-12.635429-0.219429-14.354286 0-17.718857 2.925714-32.292571 8.758857-43.721143s17.572571-24.283429 35.145143-38.564571 28.068571-23.643429 31.524571-28.068572c5.284571-7.003429 7.936-14.72 7.936-23.149714 0-11.739429-4.681143-21.741714-14.043428-30.098286-9.380571-8.356571-21.961143-12.544-37.814857-12.544-15.286857 0-28.068571 4.352-38.363429 13.074286s-17.353143 21.997714-21.211428 39.862857l-55.277715-6.857143c1.572571-25.563429 12.470857-47.286857 32.676572-65.152 20.205714-17.883429 46.756571-26.788571 79.616-26.788571 34.596571 0 62.098286 9.033143 82.523428 27.081143 20.406857 18.066286 30.646857 39.131429 30.646857 63.104a69.851429 69.851429 0 0 1-11.282285 37.741714zM705.846857 518.107429A363.428571 363.428571 0 0 0 518.857143 466.285714c-201.965714 0-365.714286 163.730286-365.714286 365.714286h73.142857c0-161.590857 130.998857-292.571429 292.571429-292.571429 44.050286 0 85.686857 10.020571 123.136 27.446858a219.958857 219.958857 0 0 1 63.853714-48.768z" /></svg>